<svg width="125" height="47" viewBox="0 0 125 47" fill="none" xmlns="http://www.w3.org/2000/svg">
<path d="M46.0582 23.4877L35.2109 35.7261H46.2536L51.5696 29.7278L57.0976 23.491V23.4877L57.1141 23.4711L51.606 17.2708L46.2536 11.2063H35.2109L46.0582 23.4877Z" fill="#1A1D27"/>
<path d="M24.0324 35.7261H32.7334V3.96265H24.0324V13.5943C22.2174 11.4448 19.253 10.3915 16.4344 10.3915C9.16756 10.3915 4.14966 16.4163 4.14966 23.4413C4.14966 30.4664 9.26361 36.5375 16.5304 36.5375C19.3954 36.5375 22.4095 35.4379 23.9364 33.0002H24.0324V35.7261ZM18.7264 17.9432C22.2637 17.9432 24.3206 20.477 24.3206 23.4877C24.3206 26.5978 22.2637 28.9859 18.7264 28.9859C15.189 28.9859 13.1355 26.5978 13.1355 23.4877C13.1355 20.477 15.189 17.9432 18.7264 17.9432Z" fill="#1A1D27"/>
<path d="M79.1896 11.2065H70.4919V32.7321L79.1896 42.5493V33.3845C81.0543 35.5341 83.969 36.5377 86.791 36.5377C94.0545 36.5377 99.0757 30.6122 99.0757 23.5375C99.0757 16.5092 94.0081 10.3916 86.6949 10.3916C83.8266 10.3916 80.8622 11.5376 79.2857 13.9787H79.1896V11.2065ZM84.4957 17.9433C88.033 17.9433 90.0899 20.4771 90.0899 23.4878C90.0899 26.5979 88.033 28.986 84.4957 28.986C80.9583 28.986 78.9048 26.5979 78.9048 23.4878C78.9047 20.4772 80.9583 17.9433 84.4957 17.9433Z" fill="#1A1D27"/>
<path d="M110.334 11.2063H101.633V35.7261H110.334V25.8327C110.334 21.6264 111.529 18.4235 116.355 18.4235C117.693 18.4235 118.842 18.5659 120.035 19.235V10.8718H118.362C114.971 10.8718 112.102 12.2099 110.43 15.2206H110.334V11.2063Z" fill="#1A1D27"/>
<path d="M59.7472 26.366L74.4597 42.9698H63.4171L54.2258 32.5994L59.7472 26.366Z" fill="#1A1D27"/>
<path d="M67.9414 11.2031H56.902L54.1729 14.2934L59.6908 20.5467L67.9414 11.2031Z" fill="#1A1D27"/>
</svg>
